<svg xmlns="http://www.w3.org/2000/svg" viewBox="0 0 20.99 20.99"><defs><style>.cls-1{fill:#384c5d;}.cls-2{fill:#eded56;}.cls-3{fill:#fff;}</style></defs><g id="圖層_2" data-name="圖層 2"><g id="圖層_1-2" data-name="圖層 1"><path class="cls-1" d="M17.36,10.89a.24.24,0,0,1-.13-.05.19.19,0,0,1,0-.26A12.59,12.59,0,0,0,20.54.45,12.6,12.6,0,0,0,10.42,3.76a.18.18,0,1,1-.26-.26C14.57-.92,20.68.1,20.74.11a.19.19,0,0,1,.15.15c0,.06,1,6.16-3.4,10.58A.19.19,0,0,1,17.36,10.89Z"/><path class="cls-1" d="M10.78,21a.18.18,0,0,1-.15-.08l-.32-.48a.2.2,0,0,1,0-.25c2.52-1.88,3.42-3.62,2.77-5.33a.18.18,0,1,1,.34-.14c.71,1.86-.19,3.71-2.74,5.66l.12.19a32.55,32.55,0,0,0,6.8-5.91,22.37,22.37,0,0,0-.46-3.91.19.19,0,0,1,.15-.22.2.2,0,0,1,.22.15,22.78,22.78,0,0,1,.46,4,.21.21,0,0,1,0,.11A32.71,32.71,0,0,1,10.88,21,.16.16,0,0,1,10.78,21Z"/><path class="cls-1" d="M.67,10.71a.23.23,0,0,1-.11,0l-.48-.31a.19.19,0,0,1,0-.26A32.67,32.67,0,0,1,6.17,3a.2.2,0,0,1,.11,0h0a21.83,21.83,0,0,1,4,.46.18.18,0,1,1-.06.36,21.23,21.23,0,0,0-3.92-.45,32.54,32.54,0,0,0-5.9,6.8l.18.12c1.95-2.56,3.8-3.45,5.66-2.75a.19.19,0,0,1-.13.35c-1.72-.65-3.46.25-5.34,2.76A.16.16,0,0,1,.67,10.71Z"/><path class="cls-1" d="M1.39,20.57a.17.17,0,0,1-.12,0,.19.19,0,0,1,0-.24,17.46,17.46,0,0,1,1.54-2.2A5.12,5.12,0,0,1,1.49,19a.19.19,0,0,1-.22-.06.2.2,0,0,1,0-.23,5.56,5.56,0,0,0,1.32-4.41.2.2,0,0,1,0-.15,3.85,3.85,0,0,1,2.66-1.49,2.89,2.89,0,0,1,2.17,1,2.87,2.87,0,0,1,.91,2.27A3,3,0,0,1,7.27,18a4.29,4.29,0,0,1-2,.82c-.33.07-.7.15-1.11.27a7.68,7.68,0,0,0-2.62,1.45A.15.15,0,0,1,1.39,20.57Z"/><path class="cls-2" d="M3.85,17.55a9.49,9.49,0,0,0-1.76,2.08A7.55,7.55,0,0,1,4,18.71c.43-.12.81-.2,1.14-.27A3.82,3.82,0,0,0,7,17.69a2.63,2.63,0,0,0,1-1.88,2.54,2.54,0,0,0-.8-2A2.52,2.52,0,0,0,5.3,13,3.45,3.45,0,0,0,3,14.28a5.65,5.65,0,0,1-.92,3.92,4.07,4.07,0,0,0,.77-.7,5.26,5.26,0,0,0,.86-1.43,2.48,2.48,0,0,1,.48-.83C5,14.39,5.62,14.65,6,15a1,1,0,0,1,.22,1.12A2.6,2.6,0,0,1,3.85,17.55Z"/><path class="cls-3" d="M5.25,15a1.27,1.27,0,0,0-.83.47,2.14,2.14,0,0,0-.4.71,5.8,5.8,0,0,1-.8,1.38,3,3,0,0,1,.45-.38.18.18,0,0,1,.09,0A2.27,2.27,0,0,0,5.85,16a.7.7,0,0,0-.6-1Z"/><path class="cls-1" d="M13.29,15h0L7.81,13.31A.19.19,0,0,1,7.73,13l4.08-4.08a.19.19,0,0,1,.26,0,.2.2,0,0,1,0,.27L8.21,13l5,1.53,4-4a.18.18,0,0,1,.26.26l-4.07,4.07A.18.18,0,0,1,13.29,15Z"/><path class="cls-1" d="M7.86,13.31h0a.19.19,0,0,1-.13-.13L6,7.76a.19.19,0,0,1,0-.19L10.16,3.5a.18.18,0,0,1,.26.26l-4,4,1.53,5,3.86-3.86a.19.19,0,0,1,.26,0,.2.2,0,0,1,0,.27L8,13.26A.19.19,0,0,1,7.86,13.31Z"/><path class="cls-1" d="M17.36,10.89h-.05L11.88,9.23a.18.18,0,0,1-.12-.12L10.11,3.69a.19.19,0,0,1,.06-.2.18.18,0,0,1,.17,0L15.77,5.1a.2.2,0,0,1,.12.13l1.65,5.42a.17.17,0,0,1,0,.17A.18.18,0,0,1,17.36,10.89Zm-5.27-2,5,1.52-1.52-5-5-1.52Z"/><path class="cls-1" d="M14.06,9.89a.2.2,0,0,1-.18-.14L12.3,4.35a.19.19,0,0,1,.13-.23.19.19,0,0,1,.23.13l1.58,5.4a.19.19,0,0,1-.13.23Z"/><path class="cls-1" d="M15.37,10.29a.18.18,0,0,1-.17-.14l-1.59-5.4a.19.19,0,0,1,.12-.23.17.17,0,0,1,.23.12l1.59,5.41a.19.19,0,0,1-.12.23Z"/><path class="cls-1" d="M8.69,7.36a.18.18,0,0,1-.17-.13l-.27-.88a.19.19,0,0,1,.12-.23.2.2,0,0,1,.24.13l.26.87a.18.18,0,0,1-.12.23Z"/><path class="cls-1" d="M7.73,8.33a.2.2,0,0,1-.18-.14l-.26-.87a.18.18,0,0,1,.35-.11l.27.88a.19.19,0,0,1-.13.23Z"/><path class="cls-1" d="M9.77,6.68a.19.19,0,0,1-.18-.13L9.24,5.37a.18.18,0,0,1,.35-.11L10,6.44a.19.19,0,0,1-.12.23Z"/><path class="cls-1" d="M9.28,7.17A.18.18,0,0,1,9.1,7L8.74,5.86a.19.19,0,0,1,.36-.1l.35,1.17a.18.18,0,0,1-.12.23Z"/><path class="cls-1" d="M8.28,8.16A.17.17,0,0,1,8.11,8L7.75,6.86a.18.18,0,0,1,.35-.11l.36,1.17a.19.19,0,0,1-.12.24Z"/><path class="cls-1" d="M7.4,9.05a.19.19,0,0,1-.18-.13L6.87,7.74a.18.18,0,0,1,.35-.11l.36,1.18A.19.19,0,0,1,7.46,9Z"/><path class="cls-1" d="M14.45,11.21h0a.21.21,0,0,1-.14-.1l0,0-.21,0a.19.19,0,0,1-.13,0l-.14-.1h-.21a.2.2,0,0,1-.16-.13l0-.05-.24,0a.19.19,0,0,1-.16-.31l.94-.94a.18.18,0,0,1,.26.26l-.58.59a.16.16,0,0,1,.08.1l0,.07h.12a.17.17,0,0,1,.1,0l.13.08.27,0a.25.25,0,0,1,.15.05l.75-.75a.2.2,0,0,1,.27,0,.19.19,0,0,1,0,.26l-.93.93A.19.19,0,0,1,14.45,11.21Z"/></g></g></svg>