<svg xmlns="http://www.w3.org/2000/svg" viewBox="0 0 23.07 21.13"><defs><style>.cls-1{fill:#384c5d;}.cls-2{fill:#01b8aa;}</style></defs><g id="圖層_2" data-name="圖層 2"><g id="圖層_1-2" data-name="圖層 1"><path class="cls-1" d="M2.75,12.76a.15.15,0,0,1-.09,0l-1.5-.8a.19.19,0,0,1,.18-.33l1.5.8a.18.18,0,0,1,.07.25A.16.16,0,0,1,2.75,12.76Z"/><path class="cls-1" d="M2.75,12.11a.15.15,0,0,1-.09,0l-1.5-.8A.18.18,0,0,1,1.09,11,.18.18,0,0,1,1.34,11l1.5.8a.18.18,0,0,1,.07.25A.17.17,0,0,1,2.75,12.11Z"/><path class="cls-1" d="M2.75,11.53l-.09,0-1.5-.8a.18.18,0,1,1,.18-.32l1.5.8a.18.18,0,0,1,.07.25A.18.18,0,0,1,2.75,11.53Z"/><path class="cls-1" d="M2.75,15a.15.15,0,0,1-.09,0l-1.5-.8a.18.18,0,0,1-.07-.25.19.19,0,0,1,.25-.08l1.5.8a.18.18,0,0,1,.07.25A.16.16,0,0,1,2.75,15Z"/><path class="cls-1" d="M2.75,14.44l-.09,0-1.5-.8a.19.19,0,0,1,.18-.33l1.5.8a.18.18,0,0,1,.07.25A.16.16,0,0,1,2.75,14.44Z"/><path class="cls-1" d="M2.75,10.41l-.09,0-1.5-.8a.19.19,0,0,1-.07-.26.18.18,0,0,1,.25-.07l1.5.8a.18.18,0,0,1,.07.25A.18.18,0,0,1,2.75,10.41Z"/><path class="cls-1" d="M9.48,21a.16.16,0,0,1-.09,0,.16.16,0,0,1-.09-.15V10.11a.18.18,0,0,1,.18-.19.18.18,0,0,1,.19.19v10.4l5.21-2.78a.18.18,0,1,1,.17.32L9.57,21Z"/><path class="cls-1" d="M18.78,13.09a.18.18,0,0,1-.18-.19V5.15A.18.18,0,0,1,18.78,5a.19.19,0,0,1,.19.19V12.9A.19.19,0,0,1,18.78,13.09Z"/><path class="cls-1" d="M9.48,21,9.4,21,.1,16a.19.19,0,0,1-.1-.16V5.15A.18.18,0,0,1,.18,5a.18.18,0,0,1,.19.19V15.74L9.3,20.51V10.11a.18.18,0,0,1,.18-.19.18.18,0,0,1,.19.19V20.82a.19.19,0,0,1-.09.15A.17.17,0,0,1,9.48,21Z"/><path class="cls-1" d="M9.48,10.29a.11.11,0,0,1-.08,0l-9.3-5A.18.18,0,0,1,0,5.15.19.19,0,0,1,.1,5L9.4,0a.17.17,0,0,1,.17,0l9.3,5a.19.19,0,0,1,.1.16.19.19,0,0,1-.1.17l-9.3,5A.15.15,0,0,1,9.48,10.29ZM.58,5.15,9.48,9.9l8.91-4.75L9.48.39Z"/><path class="cls-1" d="M13.12,8.35a.15.15,0,0,1-.09,0l-9.17-5A.18.18,0,1,1,4,3l9.18,5a.18.18,0,0,1,.07.25A.17.17,0,0,1,13.12,8.35Z"/><path class="cls-1" d="M15.37,7.15l-.08,0-9.2-5A.18.18,0,0,1,6,1.86a.19.19,0,0,1,.25-.08l9.19,5a.19.19,0,0,1-.09.35Z"/><path class="cls-1" d="M3.27,9.77l-.09,0-2-1.08a.18.18,0,0,1,.18-.32l2,1.07a.19.19,0,0,1,.08.25A.17.17,0,0,1,3.27,9.77Z"/><path class="cls-1" d="M3.27,11.26l-.09,0-2-1.08a.18.18,0,0,1-.07-.25.19.19,0,0,1,.25-.08l2,1.08a.19.19,0,0,1,.08.25A.19.19,0,0,1,3.27,11.26Z"/><path class="cls-1" d="M3.27,13.68l-.09,0-2-1.08a.18.18,0,0,1-.07-.25.18.18,0,0,1,.25-.07l2,1.07a.19.19,0,0,1,.08.25A.19.19,0,0,1,3.27,13.68Z"/><path class="cls-1" d="M3.27,16l-.09,0-2-1.08a.18.18,0,0,1-.07-.25.18.18,0,0,1,.25-.07l2,1.07a.19.19,0,0,1,.08.25A.19.19,0,0,1,3.27,16Z"/><path class="cls-1" d="M13.12,10.81h-.06a.17.17,0,0,1-.12-.17V8.17A.19.19,0,0,1,13.12,8a.2.2,0,0,1,.19.19v1.9l.1-.15a.19.19,0,0,1,.23-.05l.23.11.25-.24a.18.18,0,0,1,.09,0l.33-.07.35-.46a.2.2,0,0,1,.21-.06l.09,0V7a.18.18,0,0,1,.18-.19.18.18,0,0,1,.19.19V9.4a.19.19,0,0,1-.08.15.18.18,0,0,1-.16,0L15.1,9.5l-.3.41a.17.17,0,0,1-.11.06l-.35.08-.32.29a.2.2,0,0,1-.21,0l-.19-.1-.35.47A.21.21,0,0,1,13.12,10.81Z"/><path class="cls-2" d="M18.78,21a4.14,4.14,0,1,1,4.14-4.14A4.15,4.15,0,0,1,18.78,21Z"/><path class="cls-1" d="M18.78,21.13a4.31,4.31,0,0,1-3-1.24,4.35,4.35,0,0,1-1.26-3,4.3,4.3,0,0,1,7.32-3,4.35,4.35,0,0,1,1.26,3,4.28,4.28,0,0,1-4.29,4.27Zm0-.26a4,4,0,0,0,4-4,4,4,0,1,0-4,4Z"/><path class="cls-1" d="M18.54,18.78a.17.17,0,0,1-.14-.07l-1.88-2.24a.19.19,0,0,1,0-.26.18.18,0,0,1,.26,0l1.73,2.07,2.21-2.83a.19.19,0,0,1,.26,0,.18.18,0,0,1,0,.26l-2.35,3a.21.21,0,0,1-.14.07Z"/></g></g></svg>