<svg xmlns="http://www.w3.org/2000/svg" viewBox="0 0 18.92 21"><defs><style>.cls-1{fill:#384c5d;}.cls-2{fill:#fd625e;}.cls-3{fill:#fff;}</style></defs><g id="圖層_2" data-name="圖層 2"><g id="圖層_1-2" data-name="圖層 1"><path class="cls-1" d="M9.46,21h0c-.14,0-3.37-.81-6.8-5.47C-.61,11.15,0,2.69.07,2.34a.21.21,0,0,1,.14-.17l3.36-.79a.2.2,0,0,1,.16,0,.19.19,0,0,1,.07.14v.92l3.13-.79V.75A.18.18,0,0,1,7.07.57L9.42,0H9.5l2.35.56A.18.18,0,0,1,12,.75v.94l3.14.79V1.56a.16.16,0,0,1,.07-.14.17.17,0,0,1,.15,0l3.36.79a.19.19,0,0,1,.14.17c0,.35.68,8.81-2.55,13.19h0C12.87,20.19,9.64,21,9.5,21ZM.43,2.5C.36,3.61,0,11.33,2.92,15.31c3.14,4.26,6.16,5.21,6.54,5.31.39-.1,3.4-1.05,6.54-5.31,2.93-4,2.56-11.7,2.49-12.81l-3-.7v.92a.19.19,0,0,1-.08.15.21.21,0,0,1-.16,0L11.76,2a.18.18,0,0,1-.14-.18V.89L9.46.38,7.3.89v.94A.17.17,0,0,1,7.16,2l-3.5.89a.21.21,0,0,1-.16,0,.18.18,0,0,1-.07-.15V1.8Zm9,13.85a5.79,5.79,0,1,1,5.79-5.78A5.79,5.79,0,0,1,9.46,16.35Zm0-11.2a5.42,5.42,0,1,0,5.42,5.42A5.42,5.42,0,0,0,9.46,5.15Z"/><path class="cls-1" d="M9.46,14.91a4.41,4.41,0,1,1,4.41-4.41A4.42,4.42,0,0,1,9.46,14.91Z"/><path class="cls-2" d="M9.46,6.46a4,4,0,1,0,4,4A4,4,0,0,0,9.46,6.46Z"/><path class="cls-1" d="M9.16,13.06A.18.18,0,0,1,9,13L6.64,10.57A.88.88,0,1,1,7.89,9.34l1.23,1.25L11,8.54a.88.88,0,0,1,1.24,0,.89.89,0,0,1,.28.61.85.85,0,0,1-.23.63h0L9.3,13a.31.31,0,0,1-.13.06Z"/><path class="cls-3" d="M7.27,9.45a.5.5,0,0,0-.36.14.52.52,0,0,0,0,.72L9.16,12.6,12,9.48a.51.51,0,0,0,0-.72.52.52,0,0,0-.72,0L9.27,11a.2.2,0,0,1-.14.06A.19.19,0,0,1,9,11L7.63,9.6A.51.51,0,0,0,7.27,9.45Z"/></g></g></svg>